<?xml version="1.0" standalone="no"?>
<!DOCTYPE svg PUBLIC "-//W3C//DTD SVG 20010904//EN"
 "http://www.w3.org/TR/2001/REC-SVG-20010904/DTD/svg10.dtd">
<svg version="1.0" xmlns="http://www.w3.org/2000/svg"
 width="158.000000pt" height="62.000000pt" viewBox="0 0 158.000000 62.000000"
 preserveAspectRatio="xMidYMid meet">

<g transform="translate(0.000000,62.000000) scale(0.100000,-0.100000)"
fill="#000000" stroke="none">
<path d="M0 310 l0 -310 790 0 790 0 0 310 0 310 -790 0 -790 0 0 -310z m557
254 c3 -9 1 -25 -5 -35 -7 -10 -12 -47 -12 -81 0 -35 -4 -69 -9 -77 -10 -16
-101 -35 -113 -23 -5 5 -6 16 -2 26 5 13 15 15 55 10 l49 -7 0 61 c0 34 -5 72
-11 86 -7 14 -9 32 -6 40 8 21 46 20 54 0z m-429 -27 c7 -15 31 -39 53 -54 32
-21 46 -24 79 -19 32 5 42 3 47 -10 3 -8 1 -20 -4 -25 -15 -15 -100 8 -139 38
-19 14 -49 29 -67 32 -32 7 -44 28 -33 57 9 24 49 12 64 -19z m132 13 c0 -5
15 -10 33 -10 45 0 64 -17 72 -67 5 -35 4 -44 -10 -49 -27 -11 -41 11 -26 40
8 13 10 29 7 35 -10 15 -62 14 -86 -1 -16 -10 -23 -10 -36 4 -13 12 -14 20 -5
37 12 21 51 30 51 11z m1240 -20 c0 -7 -152 -10 -435 -10 -283 0 -435 3 -435
10 0 7 152 10 435 10 283 0 435 -3 435 -10z m-1110 -139 c5 -11 10 -54 10 -95
0 -67 -2 -77 -22 -90 -30 -19 -118 -13 -134 9 -18 25 -13 173 6 185 8 5 41 10
72 10 47 0 59 -4 68 -19z m401 1 c52 -43 15 -122 -57 -122 -33 0 -34 -1 -34
-40 0 -38 -2 -40 -30 -40 l-30 0 0 110 0 110 64 0 c47 0 70 -5 87 -18z m109
-92 l0 -110 -30 0 -30 0 0 110 0 110 30 0 30 0 0 -110z m90 15 l0 -95 49 0 48
0 32 83 c40 105 43 109 76 105 24 -3 31 -13 70 -110 l43 -108 -29 0 c-22 0
-32 6 -39 25 -14 37 -82 37 -98 0 -11 -24 -15 -25 -112 -25 l-100 0 0 110 0
110 30 0 30 0 0 -95z m484 79 c19 -18 21 -55 4 -72 -9 -9 -8 -16 5 -30 23 -25
21 -58 -3 -82 -16 -16 -33 -20 -90 -20 l-70 0 0 110 0 110 69 0 c50 0 74 -4
85 -16z m-1359 -5 c4 -6 28 -9 54 -7 40 3 46 1 46 -17 0 -18 -6 -20 -50 -18
-45 3 -47 2 -25 -9 14 -6 36 -12 50 -12 18 -1 25 -7 25 -21 0 -14 -7 -20 -25
-21 -14 0 -33 -4 -42 -8 -26 -12 -48 0 -48 26 0 13 -9 29 -20 36 -19 12 -27
42 -13 55 10 11 41 8 48 -4z m449 -55 c21 -8 21 -53 0 -61 -8 -3 -25 0 -37 6
-12 7 -42 11 -67 9 -34 -2 -45 1 -48 13 -4 20 27 34 42 19 14 -14 48 -12 70 5
23 17 20 17 40 9z m-355 -73 c8 -5 11 -16 8 -26 -6 -13 -15 -15 -53 -9 -34 5
-48 3 -55 -7 -14 -22 -11 -57 7 -84 13 -21 14 -28 4 -41 -19 -22 -54 -14 -58
15 -2 13 1 28 7 34 6 6 11 24 11 40 0 47 17 67 55 67 18 0 37 5 40 10 8 12 16
12 34 1z m246 -1 c3 -5 21 -10 39 -10 42 0 56 -15 56 -61 0 -21 5 -41 10 -44
18 -11 11 -53 -10 -60 -39 -12 -65 30 -35 55 15 13 20 47 9 74 -7 18 -46 21
-74 6 -22 -12 -44 9 -34 34 7 18 29 21 39 6z m-151 -89 c12 -19 -6 -43 -28
-36 -11 4 -36 9 -53 12 -36 6 -41 -4 -21 -36 14 -24 -3 -51 -30 -46 -9 2 -20
4 -24 4 -14 2 -8 30 12 63 16 27 28 34 62 39 68 10 76 10 82 0z m119 -7 c9 -3
17 -14 17 -25 0 -10 4 -19 9 -19 16 0 20 -28 7 -45 -18 -25 -56 -11 -56 21 0
13 5 24 10 24 6 0 10 5 10 10 0 18 -30 23 -56 10 -29 -16 -48 -3 -38 24 7 17
37 17 97 0z m1077 -74 c0 -7 -152 -10 -435 -10 -283 0 -435 3 -435 10 0 7 152
10 435 10 283 0 435 -3 435 -10z"/>
<path d="M80 540 c0 -5 5 -10 10 -10 6 0 10 5 10 10 0 6 -4 10 -10 10 -5 0
-10 -4 -10 -10z"/>
<path d="M230 524 c0 -8 5 -12 10 -9 6 4 8 11 5 16 -9 14 -15 11 -15 -7z"/>
<path d="M700 340 c0 -37 2 -41 21 -38 12 2 27 11 33 21 14 22 -3 51 -33 55
-19 3 -21 -1 -21 -38z"/>
<path d="M1177 310 c-13 -30 -13 -35 -1 -38 34 -8 42 1 29 38 l-13 35 -15 -35z"/>
<path d="M1380 350 c0 -23 5 -30 19 -30 10 0 24 7 31 15 16 19 -3 45 -31 45
-14 0 -19 -7 -19 -30z"/>
<path d="M1380 255 c0 -24 5 -35 14 -35 29 0 46 13 46 35 0 22 -17 35 -46 35
-9 0 -14 -11 -14 -35z"/>
<path d="M540 300 c0 -5 5 -10 10 -10 6 0 10 5 10 10 0 6 -4 10 -10 10 -5 0
-10 -4 -10 -10z"/>
<path d="M530 120 c0 -5 5 -10 11 -10 5 0 7 5 4 10 -3 6 -8 10 -11 10 -2 0 -4
-4 -4 -10z"/>
<path d="M160 90 c0 -5 5 -10 10 -10 6 0 10 5 10 10 0 6 -4 10 -10 10 -5 0
-10 -4 -10 -10z"/>
<path d="M420 90 c0 -5 5 -10 10 -10 6 0 10 5 10 10 0 6 -4 10 -10 10 -5 0
-10 -4 -10 -10z"/>
</g>
</svg>
